<?xml version="1.0" standalone="no"?>
<!DOCTYPE svg PUBLIC "-//W3C//DTD SVG 20010904//EN"
 "http://www.w3.org/TR/2001/REC-SVG-20010904/DTD/svg10.dtd">
<svg version="1.0" xmlns="http://www.w3.org/2000/svg"
 width="362.000000pt" height="223.000000pt" viewBox="0 0 362.000000 223.000000"
 preserveAspectRatio="xMidYMid meet">

<g transform="translate(0.000000,223.000000) scale(0.100000,-0.100000)"
fill="#d62124" stroke="none">
<path d="M535 2190 c-252 -66 -437 -244 -514 -494 -29 -95 -30 -305 -1 -415
11 -42 58 -260 105 -484 70 -339 90 -419 117 -473 82 -162 220 -270 397 -310
79 -18 -79 -23 1686 51 609 26 657 30 760 76 120 52 246 157 318 261 57 83 87
168 152 433 l65 267 0 235 c0 219 -1 236 -21 276 -71 139 -226 262 -374 296
-27 6 -147 22 -265 36 -118 14 -489 60 -825 101 -335 41 -668 81 -740 89 -71
9 -237 29 -368 45 -275 35 -392 37 -492 10z m-44 -360 c4 -14 10 -38 13 -53
l7 -28 28 30 c50 53 119 66 180 33 78 -42 91 -143 31 -247 -24 -41 -28 -55
-17 -55 24 0 78 -51 93 -87 42 -99 -19 -220 -137 -272 l-47 -21 5 -44 c5 -37
2 -46 -18 -60 -28 -19 -89 -21 -111 -3 -9 6 -21 37 -27 67 -17 84 -101 667
-101 697 0 62 85 98 101 43z m1567 -132 c11 -10 13 -30 9 -95 l-6 -83 22 14
c56 35 130 25 185 -27 54 -51 65 -188 21 -286 -39 -89 -99 -131 -186 -131 -38
0 -51 -4 -61 -21 -12 -19 -21 -21 -67 -17 -80 7 -86 15 -80 112 4 44 12 140
20 211 8 72 17 174 21 228 6 88 9 100 28 108 25 10 73 4 94 -13z m-865 -2 c45
-18 91 -75 113 -138 16 -45 19 -80 17 -228 -1 -107 -7 -194 -15 -225 -12 -47
-15 -50 -48 -53 -19 -2 -52 2 -74 8 -34 10 -38 14 -34 40 l4 29 -31 -19 c-68
-42 -140 -16 -176 64 -44 96 -5 217 85 263 31 16 97 20 135 8 20 -6 21 -4 15
37 -9 64 -23 95 -46 102 -30 7 -72 -17 -109 -64 -38 -48 -74 -53 -108 -16
l-23 25 21 34 c28 45 104 115 144 132 41 18 89 19 130 1z m1805 -52 c15 -11
22 -25 22 -50 l0 -35 30 16 c68 35 158 5 187 -63 18 -44 14 -152 -8 -198 -12
-24 -21 -30 -55 -32 -28 -2 -48 3 -64 16 -23 18 -23 20 -10 81 7 34 10 64 7
68 -10 9 -47 -85 -63 -160 -8 -38 -14 -100 -14 -138 0 -56 -4 -73 -20 -89 -25
-25 -80 -26 -110 -2 -26 21 -25 10 -14 365 6 195 8 209 28 222 27 19 56 19 84
-1z m-1457 -14 c15 -8 19 -21 19 -57 l0 -46 23 21 c58 54 141 49 195 -13 38
-43 49 -104 32 -177 -20 -86 -25 -91 -77 -85 -66 7 -80 25 -65 82 14 52 16
105 4 105 -13 0 -60 -108 -77 -175 -9 -36 -15 -106 -15 -180 0 -81 -4 -125
-12 -133 -12 -12 -95 -16 -122 -6 -19 7 -21 107 -9 452 6 194 7 204 27 212 29
12 54 12 77 0z m1069 -50 c45 -12 103 -71 129 -131 32 -72 52 -183 58 -325 6
-129 6 -131 -18 -147 -36 -26 -95 -22 -125 8 -20 20 -29 23 -44 15 -10 -5 -37
-10 -59 -10 -115 0 -177 184 -99 291 29 39 87 69 134 69 34 0 36 1 29 28 -10
40 -33 72 -53 72 -26 -1 -47 -21 -79 -75 -32 -55 -59 -66 -97 -41 -34 22 -37
50 -10 104 30 60 90 119 140 137 48 17 50 17 94 5z m-826 -513 c15 -11 21 -53
42 -288 29 -339 30 -387 7 -397 -36 -14 -104 -8 -117 10 -9 13 -27 18 -60 18
-116 0 -196 98 -196 239 1 136 102 226 201 177 17 -9 34 -16 36 -16 3 0 1 56
-3 125 l-7 125 24 9 c34 14 52 13 73 -2z m-806 -41 c67 -35 92 -91 92 -210 0
-167 -29 -255 -96 -293 -75 -44 -163 -21 -206 54 -77 131 -10 406 110 455 28
11 72 9 100 -6z m1320 -62 c50 -32 83 -132 67 -203 -7 -35 -45 -48 -88 -32
-24 9 -27 16 -27 55 0 57 -8 76 -30 76 -12 0 -24 -15 -35 -45 -27 -70 -4 -192
40 -209 9 -3 34 -6 55 -6 45 0 70 -26 70 -75 0 -52 -18 -67 -86 -68 -74 0
-133 28 -173 83 -40 56 -54 116 -49 212 8 154 88 248 198 232 19 -3 45 -12 58
-20z m711 -22 c15 -15 30 -34 33 -42 4 -13 9 -13 36 3 72 41 150 6 171 -79 9
-33 9 -66 1 -122 -13 -97 -66 -299 -85 -329 -21 -32 -74 -31 -112 1 -31 27
-33 10 19 186 14 47 29 105 32 130 l7 45 -20 -35 c-11 -19 -35 -73 -52 -119
l-32 -83 -45 5 c-24 3 -51 12 -60 21 -14 14 -14 22 2 90 22 94 32 197 17 176
-14 -20 -55 -155 -76 -250 -9 -41 -24 -81 -33 -87 -22 -18 -56 -16 -82 5 l-22
18 26 109 c70 291 122 384 214 385 23 0 42 -8 61 -28z m-2525 -18 c9 -3 16
-12 16 -20 0 -16 14 -18 39 -4 34 18 130 28 147 15 20 -14 31 -100 15 -119 -7
-8 -35 -17 -64 -21 -66 -9 -97 -28 -97 -61 0 -25 0 -26 63 -19 75 8 92 -4 92
-70 0 -60 -16 -75 -82 -75 l-55 0 7 -47 c6 -42 32 -120 77 -231 12 -30 11 -35
-6 -48 -27 -19 -89 -18 -115 4 -14 11 -32 58 -55 139 -46 158 -65 270 -73 420
l-6 123 24 9 c29 12 52 13 73 5z m2139 -29 c42 -20 75 -71 83 -127 10 -74 -13
-245 -42 -305 -31 -64 -91 -99 -156 -90 -91 12 -138 85 -138 213 0 220 124
371 253 309z m-1284 -104 c64 -45 80 -97 81 -251 0 -121 -10 -167 -47 -211
-31 -37 -61 -49 -120 -51 -56 -1 -106 33 -136 92 -19 39 -22 61 -22 155 1 90
5 120 24 168 43 109 142 153 220 98z m671 -215 c13 -23 13 -29 0 -53 -35 -62
-120 -48 -120 20 0 40 9 53 40 65 33 12 62 1 80 -32z"/>
<path d="M620 1693 c-22 -21 -33 -43 -42 -85 -7 -32 -9 -60 -5 -64 18 -18 97
93 97 137 0 40 -15 43 -50 12z"/>
<path d="M590 1399 c0 -35 24 -149 32 -149 15 0 51 21 76 43 29 27 31 91 3
107 -26 13 -111 13 -111 -1z"/>
<path d="M2137 1403 c-18 -20 -67 -122 -67 -139 0 -13 22 -24 46 -24 24 0 54
61 54 110 0 59 -11 77 -33 53z"/>
<path d="M1065 1306 c-23 -35 -17 -101 9 -101 23 0 72 86 63 110 -10 24 -54
18 -72 -9z"/>
<path d="M2555 1200 c-13 -14 -16 -28 -11 -55 9 -44 23 -45 42 0 27 66 9 100
-31 55z"/>
<path d="M1595 676 c-8 -38 8 -98 30 -116 9 -7 26 -9 40 -6 30 8 29 22 -14
100 -33 62 -48 68 -56 22z"/>
<path d="M896 873 c-21 -43 -32 -144 -22 -197 15 -77 52 -23 67 97 17 130 -6
181 -45 100z"/>
<path d="M2531 736 c-39 -79 -41 -221 -3 -214 28 5 54 65 60 138 8 122 -18
157 -57 76z"/>
<path d="M1243 653 c-21 -52 -28 -139 -14 -190 23 -86 58 -35 68 97 8 117 -22
168 -54 93z"/>
</g>
</svg>
