<svg width="10" height="16" viewBox="0 0 10 16" fill="none" xmlns="http://www.w3.org/2000/svg">
<path d="M8.29289 0.292893C8.68342 -0.0976311 9.31658 -0.0976311 9.70711 0.292893C10.0976 0.683417 10.0976 1.31658 9.70711 1.70711L8.29289 0.292893ZM2 8L1.31955 8.73279L0.559113 8.02667L1.29289 7.29289L2 8ZM9.68045 13.7672C10.0852 14.143 10.1086 14.7757 9.73279 15.1805C9.35699 15.5852 8.72426 15.6086 8.31955 15.2328L9.68045 13.7672ZM9.70711 1.70711L2.70711 8.70711L1.29289 7.29289L8.29289 0.292893L9.70711 1.70711ZM2.68045 7.26721L9.68045 13.7672L8.31955 15.2328L1.31955 8.73279L2.68045 7.26721Z" fill="black"/>
</svg>
